<?xml version="1.0" encoding="UTF-8"?>
<svg xmlns="http://www.w3.org/2000/svg" xmlns:xlink="http://www.w3.org/1999/xlink" width="100pt" height="100pt" viewBox="0 0 100 100" version="1.1">
<g id="surface15822541">
<path style="fill-rule:nonzero;fill:rgba(5%,5%,5%, 0.2);fill-opacity:1;stroke-width:5;stroke-linecap:butt;stroke-linejoin:round;stroke:rgb(100%,100%,100%);stroke-opacity:1;stroke-miterlimit:10;" d="M 134.157954 77.68451 C 134.157954 78.825039 134.157954 141.042599 134.157954 141.042599 C 134.157954 160.41776 118.425572 172.002765 103.197788 172.002765 C 103.197788 172.002765 75.085487 171.98894 74.967978 171.975116 C 55.966082 171.774659 48.963927 163.479906 44.678305 155.420171 L 34.980356 136.293853 C 32.346772 130.155736 30.957401 124.646637 30.957401 120.402488 C 30.957401 103.833719 41.788966 99.098798 44.719779 97.343075 L 44.719779 18.542921 C 44.719779 12.549961 49.986947 10.31729 53.304848 10.31729 C 56.77482 10.31729 61.917567 12.619084 61.917567 18.943834 L 61.917567 79.122267 C 61.917567 81.016236 63.479745 82.557677 65.373714 82.557677 C 67.267683 82.557677 68.816037 81.016236 68.816037 79.122267 L 68.816037 67.1087 C 68.816037 63.624904 71.553305 58.482157 77.44258 58.482157 C 83.311118 58.482157 86 63.624904 86 67.1087 L 86 75.735243 C 86 77.629212 87.582915 79.163741 89.490709 79.163741 C 91.39159 79.163741 92.933031 77.629212 92.933031 75.721418 L 92.933031 70.54411 C 92.933031 66.611015 95.525141 61.917567 101.54575 61.917567 C 107.566358 61.917567 110.144644 66.286137 110.082433 70.45425 L 109.985661 82.557677 C 109.985661 84.451646 111.61005 86 113.517843 86 C 115.425637 86 116.960166 84.451646 116.960166 82.557677 L 117.056938 77.50479 C 117.056938 72.887378 119.752733 68.802212 125.669657 68.802212 C 131.593493 68.802212 134.157954 72.949588 134.157954 77.68451 Z M 79.122267 106.640111 C 79.122267 104.732317 77.573913 103.197788 75.679945 103.197788 C 73.785976 103.197788 72.237622 104.732317 72.237622 106.640111 L 72.237622 137.600276 C 72.237622 139.50807 73.785976 141.042599 75.679945 141.042599 C 77.573913 141.042599 79.122267 139.50807 79.122267 137.600276 Z M 96.320055 106.640111 C 96.320055 104.732317 94.785526 103.197788 92.877733 103.197788 C 90.96994 103.197788 89.442323 104.732317 89.442323 106.640111 L 89.442323 137.600276 C 89.442323 139.50807 90.96994 141.042599 92.877733 141.042599 C 94.785526 141.042599 96.320055 139.50807 96.320055 137.600276 Z M 113.517843 106.640111 C 113.517843 104.732317 111.990226 103.197788 110.082433 103.197788 C 108.17464 103.197788 106.640111 104.732317 106.640111 106.640111 L 106.640111 137.600276 C 106.640111 139.50807 108.17464 141.042599 110.082433 141.042599 C 111.990226 141.042599 113.517843 139.50807 113.517843 137.600276 Z M 113.517843 106.640111 " transform="matrix(0.565116,0,0,0.565116,1.4,1.4)"/>
<path style=" stroke:none;fill-rule:nonzero;fill:rgba(5%,5%,5%, 0.1);fill-opacity:1;" d="M 72.417969 40.28125 C 69.074219 40.28125 67.550781 42.589844 67.550781 45.199219 L 67.496094 48.054688 C 67.496094 49.125 66.628906 50 65.550781 50 C 64.472656 50 63.554688 49.125 63.554688 48.054688 L 63.609375 41.214844 C 63.644531 38.859375 62.1875 36.390625 58.785156 36.390625 C 55.382812 36.390625 53.917969 39.042969 53.917969 41.265625 L 53.917969 44.191406 C 53.917969 45.269531 53.046875 46.136719 51.972656 46.136719 C 50.894531 46.136719 50 45.269531 50 44.199219 L 50 39.324219 C 50 37.355469 48.480469 34.449219 45.164062 34.449219 C 41.835938 34.449219 40.289062 37.355469 40.289062 39.324219 L 40.289062 46.113281 C 40.289062 47.183594 39.414062 48.054688 38.34375 48.054688 C 37.273438 48.054688 36.390625 47.183594 36.390625 46.113281 L 36.390625 12.105469 C 36.390625 8.53125 33.484375 7.230469 31.523438 7.230469 C 29.648438 7.230469 26.671875 8.492188 26.671875 11.878906 L 26.671875 56.410156 C 25.015625 57.402344 18.894531 60.078125 18.894531 69.441406 C 18.894531 71.839844 19.679688 74.953125 21.167969 78.421875 L 26.648438 89.230469 C 29.070312 93.785156 33.027344 98.472656 43.765625 98.585938 C 43.832031 98.59375 59.71875 98.601562 59.71875 98.601562 C 68.324219 98.601562 77.214844 92.054688 77.214844 81.105469 C 77.214844 81.105469 77.214844 45.945312 77.214844 45.300781 C 77.214844 42.625 75.765625 40.28125 72.417969 40.28125 Z M 46.113281 79.160156 C 46.113281 80.238281 45.238281 81.105469 44.167969 81.105469 C 43.097656 81.105469 42.222656 80.238281 42.222656 79.160156 L 42.222656 61.664062 C 42.222656 60.585938 43.097656 59.71875 44.167969 59.71875 C 45.238281 59.71875 46.113281 60.585938 46.113281 61.664062 Z M 55.832031 79.160156 C 55.832031 80.238281 54.964844 81.105469 53.886719 81.105469 C 52.808594 81.105469 51.945312 80.238281 51.945312 79.160156 L 51.945312 61.664062 C 51.945312 60.585938 52.808594 59.71875 53.886719 59.71875 C 54.964844 59.71875 55.832031 60.585938 55.832031 61.664062 Z M 65.550781 79.160156 C 65.550781 80.238281 64.6875 81.105469 63.609375 81.105469 C 62.53125 81.105469 61.664062 80.238281 61.664062 79.160156 L 61.664062 61.664062 C 61.664062 60.585938 62.53125 59.71875 63.609375 59.71875 C 64.6875 59.71875 65.550781 60.585938 65.550781 61.664062 Z M 65.550781 79.160156 "/>
</g>
</svg>
